<?xml version="1.0" standalone="no"?>
<!DOCTYPE svg PUBLIC "-//W3C//DTD SVG 20010904//EN"
 "http://www.w3.org/TR/2001/REC-SVG-20010904/DTD/svg10.dtd">
<svg version="1.0" xmlns="http://www.w3.org/2000/svg"
 width="1200.000000pt" height="1200.000000pt" viewBox="0 0 1200.000000 1200.000000"
 preserveAspectRatio="xMidYMid meet">

<g transform="translate(0.000000,1200.000000) scale(0.100000,-0.100000)"
fill="#000000" stroke="none">
<path d="M5730 11993 c-1080 -57 -2067 -368 -2950 -931 -1544 -984 -2552
-2609 -2744 -4422 -143 -1347 167 -2693 882 -3830 581 -923 1407 -1675 2382
-2164 260 -132 427 -203 740 -317 82 -30 242 -33 303 -6 51 24 114 82 140 131
22 41 22 46 25 650 l3 608 -27 -6 c-67 -17 -316 -47 -477 -58 -349 -22 -666
22 -911 127 -147 63 -234 123 -351 240 -113 114 -174 202 -226 329 -170 416
-447 802 -668 932 -140 82 -261 208 -261 272 0 33 38 70 93 89 80 28 295 25
400 -5 202 -58 419 -212 579 -411 34 -42 97 -130 141 -196 104 -156 159 -226
250 -312 194 -184 422 -287 693 -314 218 -21 506 29 740 130 l51 22 17 97 c43
243 156 484 302 641 65 70 82 60 -146 91 -1477 206 -2263 916 -2469 2230 -35
223 -46 370 -46 660 0 308 10 404 62 625 77 328 252 681 459 930 33 39 65 78
72 87 11 14 9 31 -16 110 -70 217 -101 500 -83 741 19 238 49 385 128 619 l46
137 45 7 c25 4 91 4 146 1 350 -21 808 -206 1325 -536 l137 -87 69 18 c861
224 1769 242 2640 52 88 -19 189 -43 224 -53 l65 -18 110 72 c416 269 794 446
1116 521 112 26 306 41 382 30 l45 -7 47 -137 c159 -472 175 -939 46 -1354
-30 -96 -30 -100 -13 -122 10 -13 47 -59 82 -102 239 -293 410 -673 475 -1055
52 -302 44 -798 -19 -1172 -176 -1044 -709 -1688 -1670 -2014 -236 -80 -553
-152 -835 -188 -194 -25 -182 -16 -113 -88 188 -196 301 -489 333 -862 8 -89
11 -410 8 -1020 l-3 -890 24 -53 c29 -64 95 -125 158 -146 66 -22 177 -20 258
5 37 11 124 42 193 69 2010 768 3466 2572 3791 4695 213 1391 -67 2815 -789
4010 -974 1612 -2635 2672 -4500 2869 -285 31 -660 43 -910 29z"/>
</g>
</svg>
